<mxfile host="app.diagrams.net" modified="2023-11-19T23:23:45.878Z" agent="Mozilla/5.0 (Windows NT 10.0; Win64; x64) AppleWebKit/537.36 (KHTML, like Gecko) Chrome/119.0.0.0 Safari/537.36" etag="BdAoRmV6AeO1g8Qdzk5P" version="22.1.3" type="device">
  <diagram id="C5RBs43oDa-KdzZeNtuy" name="Page-1">
    <mxGraphModel dx="1588" dy="908" grid="1" gridSize="10" guides="1" tooltips="1" connect="1" arrows="1" fold="1" page="1" pageScale="1" pageWidth="1100" pageHeight="1700" math="0" shadow="0">
      <root>
        <mxCell id="WIyWlLk6GJQsqaUBKTNV-0" />
        <mxCell id="WIyWlLk6GJQsqaUBKTNV-1" parent="WIyWlLk6GJQsqaUBKTNV-0" />
        <mxCell id="eQsu32Dl5af4qTcnEUIw-33" style="edgeStyle=orthogonalEdgeStyle;rounded=0;orthogonalLoop=1;jettySize=auto;html=1;exitX=1;exitY=0.5;exitDx=0;exitDy=0;" edge="1" parent="WIyWlLk6GJQsqaUBKTNV-1" source="9DunZPXHNhnvJurtpDa8-48">
          <mxGeometry relative="1" as="geometry">
            <mxPoint x="459.9999999999998" y="49.529411764705856" as="targetPoint" />
          </mxGeometry>
        </mxCell>
        <mxCell id="9DunZPXHNhnvJurtpDa8-48" value="Start" style="rounded=1;whiteSpace=wrap;html=1;fontSize=12;glass=0;strokeWidth=1;shadow=0;" parent="WIyWlLk6GJQsqaUBKTNV-1" vertex="1">
          <mxGeometry x="150" y="30" width="120" height="40" as="geometry" />
        </mxCell>
        <mxCell id="eQsu32Dl5af4qTcnEUIw-10" style="edgeStyle=orthogonalEdgeStyle;rounded=0;orthogonalLoop=1;jettySize=auto;html=1;exitX=0.5;exitY=1;exitDx=0;exitDy=0;" edge="1" parent="WIyWlLk6GJQsqaUBKTNV-1" source="9DunZPXHNhnvJurtpDa8-49">
          <mxGeometry relative="1" as="geometry">
            <mxPoint x="536.8275862068965" y="90" as="targetPoint" />
          </mxGeometry>
        </mxCell>
        <mxCell id="9DunZPXHNhnvJurtpDa8-49" value="Prompt user to remove &lt;br&gt;any weights&amp;nbsp;" style="rounded=0;whiteSpace=wrap;html=1;" parent="WIyWlLk6GJQsqaUBKTNV-1" vertex="1">
          <mxGeometry x="462.15" y="25" width="150" height="50" as="geometry" />
        </mxCell>
        <mxCell id="eQsu32Dl5af4qTcnEUIw-16" style="edgeStyle=orthogonalEdgeStyle;rounded=0;orthogonalLoop=1;jettySize=auto;html=1;exitX=0.5;exitY=1;exitDx=0;exitDy=0;entryX=0.5;entryY=0;entryDx=0;entryDy=0;" edge="1" parent="WIyWlLk6GJQsqaUBKTNV-1" source="vzBQqOmFEDf3CWvEY5FO-1" target="vzBQqOmFEDf3CWvEY5FO-12">
          <mxGeometry relative="1" as="geometry" />
        </mxCell>
        <mxCell id="vzBQqOmFEDf3CWvEY5FO-1" value="Are any buttons pressed?" style="rhombus;whiteSpace=wrap;html=1;" parent="WIyWlLk6GJQsqaUBKTNV-1" vertex="1">
          <mxGeometry x="478.8999999999999" y="410" width="116.5" height="100" as="geometry" />
        </mxCell>
        <mxCell id="vzBQqOmFEDf3CWvEY5FO-4" value="No" style="text;html=1;strokeColor=none;fillColor=none;align=center;verticalAlign=middle;whiteSpace=wrap;rounded=0;" parent="WIyWlLk6GJQsqaUBKTNV-1" vertex="1">
          <mxGeometry x="590.75" y="440" width="39.25" height="20" as="geometry" />
        </mxCell>
        <mxCell id="vzBQqOmFEDf3CWvEY5FO-11" value="Yes" style="text;html=1;strokeColor=none;fillColor=none;align=center;verticalAlign=middle;whiteSpace=wrap;rounded=0;" parent="WIyWlLk6GJQsqaUBKTNV-1" vertex="1">
          <mxGeometry x="483.71" y="500" width="39.25" height="20" as="geometry" />
        </mxCell>
        <mxCell id="eQsu32Dl5af4qTcnEUIw-18" style="edgeStyle=orthogonalEdgeStyle;rounded=0;orthogonalLoop=1;jettySize=auto;html=1;exitX=0.5;exitY=1;exitDx=0;exitDy=0;" edge="1" parent="WIyWlLk6GJQsqaUBKTNV-1" source="vzBQqOmFEDf3CWvEY5FO-12">
          <mxGeometry relative="1" as="geometry">
            <mxPoint x="537.1666666666667" y="590" as="targetPoint" />
          </mxGeometry>
        </mxCell>
        <mxCell id="vzBQqOmFEDf3CWvEY5FO-12" value="Tare scale to 0" style="rounded=0;whiteSpace=wrap;html=1;" parent="WIyWlLk6GJQsqaUBKTNV-1" vertex="1">
          <mxGeometry x="477.1499999999999" y="520" width="120" height="50" as="geometry" />
        </mxCell>
        <mxCell id="eQsu32Dl5af4qTcnEUIw-25" style="edgeStyle=orthogonalEdgeStyle;rounded=0;orthogonalLoop=1;jettySize=auto;html=1;exitX=0.5;exitY=1;exitDx=0;exitDy=0;" edge="1" parent="WIyWlLk6GJQsqaUBKTNV-1" source="vzBQqOmFEDf3CWvEY5FO-15">
          <mxGeometry relative="1" as="geometry">
            <mxPoint x="537.1666666666667" y="780" as="targetPoint" />
          </mxGeometry>
        </mxCell>
        <mxCell id="vzBQqOmFEDf3CWvEY5FO-15" value="Show calibration equation and prompt user to place known weight on scale" style="rounded=0;whiteSpace=wrap;html=1;" parent="WIyWlLk6GJQsqaUBKTNV-1" vertex="1">
          <mxGeometry x="447.15" y="700" width="180" height="60" as="geometry" />
        </mxCell>
        <mxCell id="eQsu32Dl5af4qTcnEUIw-19" style="edgeStyle=orthogonalEdgeStyle;rounded=0;orthogonalLoop=1;jettySize=auto;html=1;exitX=0.5;exitY=1;exitDx=0;exitDy=0;entryX=0.5;entryY=0;entryDx=0;entryDy=0;" edge="1" parent="WIyWlLk6GJQsqaUBKTNV-1" source="vzBQqOmFEDf3CWvEY5FO-17" target="vzBQqOmFEDf3CWvEY5FO-15">
          <mxGeometry relative="1" as="geometry" />
        </mxCell>
        <mxCell id="vzBQqOmFEDf3CWvEY5FO-17" value="Are any buttons pressed?" style="rhombus;whiteSpace=wrap;html=1;" parent="WIyWlLk6GJQsqaUBKTNV-1" vertex="1">
          <mxGeometry x="478.8999999999999" y="590" width="116.5" height="100" as="geometry" />
        </mxCell>
        <mxCell id="vzBQqOmFEDf3CWvEY5FO-18" value="No" style="text;html=1;strokeColor=none;fillColor=none;align=center;verticalAlign=middle;whiteSpace=wrap;rounded=0;" parent="WIyWlLk6GJQsqaUBKTNV-1" vertex="1">
          <mxGeometry x="590.75" y="620" width="39.25" height="20" as="geometry" />
        </mxCell>
        <mxCell id="vzBQqOmFEDf3CWvEY5FO-20" value="Yes" style="text;html=1;strokeColor=none;fillColor=none;align=center;verticalAlign=middle;whiteSpace=wrap;rounded=0;" parent="WIyWlLk6GJQsqaUBKTNV-1" vertex="1">
          <mxGeometry x="492.1499999999999" y="680" width="39.25" height="20" as="geometry" />
        </mxCell>
        <mxCell id="eQsu32Dl5af4qTcnEUIw-12" style="edgeStyle=orthogonalEdgeStyle;rounded=0;orthogonalLoop=1;jettySize=auto;html=1;exitX=0.5;exitY=1;exitDx=0;exitDy=0;entryX=0.5;entryY=0;entryDx=0;entryDy=0;" edge="1" parent="WIyWlLk6GJQsqaUBKTNV-1" source="vzBQqOmFEDf3CWvEY5FO-40" target="vzBQqOmFEDf3CWvEY5FO-41">
          <mxGeometry relative="1" as="geometry" />
        </mxCell>
        <mxCell id="vzBQqOmFEDf3CWvEY5FO-40" value="Take pre-tare &lt;br&gt;scale reading" style="shape=parallelogram;perimeter=parallelogramPerimeter;whiteSpace=wrap;html=1;fixedSize=1;" parent="WIyWlLk6GJQsqaUBKTNV-1" vertex="1">
          <mxGeometry x="477.1499999999999" y="200" width="120" height="60" as="geometry" />
        </mxCell>
        <mxCell id="eQsu32Dl5af4qTcnEUIw-13" style="edgeStyle=orthogonalEdgeStyle;rounded=0;orthogonalLoop=1;jettySize=auto;html=1;exitX=0.5;exitY=1;exitDx=0;exitDy=0;entryX=0.5;entryY=0;entryDx=0;entryDy=0;" edge="1" parent="WIyWlLk6GJQsqaUBKTNV-1" source="vzBQqOmFEDf3CWvEY5FO-41" target="eQsu32Dl5af4qTcnEUIw-1">
          <mxGeometry relative="1" as="geometry" />
        </mxCell>
        <mxCell id="vzBQqOmFEDf3CWvEY5FO-41" value="Display pre-tare &lt;br&gt;scale reading" style="shape=parallelogram;perimeter=parallelogramPerimeter;whiteSpace=wrap;html=1;fixedSize=1;" parent="WIyWlLk6GJQsqaUBKTNV-1" vertex="1">
          <mxGeometry x="477.15" y="270" width="120" height="60" as="geometry" />
        </mxCell>
        <mxCell id="eQsu32Dl5af4qTcnEUIw-27" style="edgeStyle=orthogonalEdgeStyle;rounded=0;orthogonalLoop=1;jettySize=auto;html=1;exitX=0.5;exitY=1;exitDx=0;exitDy=0;entryX=0.5;entryY=0;entryDx=0;entryDy=0;" edge="1" parent="WIyWlLk6GJQsqaUBKTNV-1" source="vzBQqOmFEDf3CWvEY5FO-55" target="vzBQqOmFEDf3CWvEY5FO-56">
          <mxGeometry relative="1" as="geometry" />
        </mxCell>
        <mxCell id="vzBQqOmFEDf3CWvEY5FO-55" value="Take uncalibrated&lt;br&gt;scale reading" style="shape=parallelogram;perimeter=parallelogramPerimeter;whiteSpace=wrap;html=1;fixedSize=1;" parent="WIyWlLk6GJQsqaUBKTNV-1" vertex="1">
          <mxGeometry x="467.15" y="890" width="140" height="60" as="geometry" />
        </mxCell>
        <mxCell id="eQsu32Dl5af4qTcnEUIw-28" style="edgeStyle=orthogonalEdgeStyle;rounded=0;orthogonalLoop=1;jettySize=auto;html=1;exitX=0.5;exitY=1;exitDx=0;exitDy=0;entryX=0.5;entryY=0;entryDx=0;entryDy=0;" edge="1" parent="WIyWlLk6GJQsqaUBKTNV-1" source="vzBQqOmFEDf3CWvEY5FO-56" target="vzBQqOmFEDf3CWvEY5FO-61">
          <mxGeometry relative="1" as="geometry" />
        </mxCell>
        <mxCell id="vzBQqOmFEDf3CWvEY5FO-56" value="Display uncalibrated&lt;br&gt;scale reading" style="shape=parallelogram;perimeter=parallelogramPerimeter;whiteSpace=wrap;html=1;fixedSize=1;" parent="WIyWlLk6GJQsqaUBKTNV-1" vertex="1">
          <mxGeometry x="467.15" y="960" width="140" height="60" as="geometry" />
        </mxCell>
        <mxCell id="eQsu32Dl5af4qTcnEUIw-34" style="edgeStyle=orthogonalEdgeStyle;rounded=0;orthogonalLoop=1;jettySize=auto;html=1;exitX=0.5;exitY=1;exitDx=0;exitDy=0;" edge="1" parent="WIyWlLk6GJQsqaUBKTNV-1" source="vzBQqOmFEDf3CWvEY5FO-61">
          <mxGeometry relative="1" as="geometry">
            <mxPoint x="459.9999999999998" y="50" as="targetPoint" />
            <Array as="points">
              <mxPoint x="537" y="1160" />
              <mxPoint x="320" y="1160" />
              <mxPoint x="320" y="50" />
            </Array>
          </mxGeometry>
        </mxCell>
        <mxCell id="vzBQqOmFEDf3CWvEY5FO-61" value="Are any buttons pressed?" style="rhombus;whiteSpace=wrap;html=1;" parent="WIyWlLk6GJQsqaUBKTNV-1" vertex="1">
          <mxGeometry x="478.8999999999999" y="1040" width="116.5" height="100" as="geometry" />
        </mxCell>
        <mxCell id="vzBQqOmFEDf3CWvEY5FO-64" value="No" style="text;html=1;strokeColor=none;fillColor=none;align=center;verticalAlign=middle;whiteSpace=wrap;rounded=0;" parent="WIyWlLk6GJQsqaUBKTNV-1" vertex="1">
          <mxGeometry x="595.4" y="1070" width="39.25" height="20" as="geometry" />
        </mxCell>
        <mxCell id="vzBQqOmFEDf3CWvEY5FO-65" value="Yes&lt;br&gt;" style="text;html=1;strokeColor=none;fillColor=none;align=center;verticalAlign=middle;whiteSpace=wrap;rounded=0;" parent="WIyWlLk6GJQsqaUBKTNV-1" vertex="1">
          <mxGeometry x="492.15" y="1130" width="39.25" height="20" as="geometry" />
        </mxCell>
        <mxCell id="eQsu32Dl5af4qTcnEUIw-11" style="edgeStyle=orthogonalEdgeStyle;rounded=0;orthogonalLoop=1;jettySize=auto;html=1;exitX=0.5;exitY=1;exitDx=0;exitDy=0;entryX=0.5;entryY=0;entryDx=0;entryDy=0;" edge="1" parent="WIyWlLk6GJQsqaUBKTNV-1" source="vzBQqOmFEDf3CWvEY5FO-66" target="vzBQqOmFEDf3CWvEY5FO-40">
          <mxGeometry relative="1" as="geometry" />
        </mxCell>
        <mxCell id="vzBQqOmFEDf3CWvEY5FO-66" value="Are any buttons pressed?" style="rhombus;whiteSpace=wrap;html=1;" parent="WIyWlLk6GJQsqaUBKTNV-1" vertex="1">
          <mxGeometry x="478.9" y="90" width="116.5" height="100" as="geometry" />
        </mxCell>
        <mxCell id="vzBQqOmFEDf3CWvEY5FO-69" value="No" style="text;html=1;strokeColor=none;fillColor=none;align=center;verticalAlign=middle;whiteSpace=wrap;rounded=0;" parent="WIyWlLk6GJQsqaUBKTNV-1" vertex="1">
          <mxGeometry x="590.75" y="120" width="39.25" height="20" as="geometry" />
        </mxCell>
        <mxCell id="vzBQqOmFEDf3CWvEY5FO-70" value="Yes" style="text;html=1;strokeColor=none;fillColor=none;align=center;verticalAlign=middle;whiteSpace=wrap;rounded=0;" parent="WIyWlLk6GJQsqaUBKTNV-1" vertex="1">
          <mxGeometry x="492.15" y="180" width="39.25" height="20" as="geometry" />
        </mxCell>
        <mxCell id="eQsu32Dl5af4qTcnEUIw-14" style="edgeStyle=orthogonalEdgeStyle;rounded=0;orthogonalLoop=1;jettySize=auto;html=1;exitX=0.5;exitY=1;exitDx=0;exitDy=0;entryX=0.5;entryY=0;entryDx=0;entryDy=0;" edge="1" parent="WIyWlLk6GJQsqaUBKTNV-1" source="eQsu32Dl5af4qTcnEUIw-1" target="vzBQqOmFEDf3CWvEY5FO-1">
          <mxGeometry relative="1" as="geometry" />
        </mxCell>
        <mxCell id="eQsu32Dl5af4qTcnEUIw-1" value="Prompt user to remove &lt;br&gt;any weights&amp;nbsp;" style="rounded=0;whiteSpace=wrap;html=1;" vertex="1" parent="WIyWlLk6GJQsqaUBKTNV-1">
          <mxGeometry x="462.15" y="340" width="150" height="50" as="geometry" />
        </mxCell>
        <mxCell id="eQsu32Dl5af4qTcnEUIw-9" style="edgeStyle=orthogonalEdgeStyle;rounded=0;orthogonalLoop=1;jettySize=auto;html=1;exitX=1;exitY=0.5;exitDx=0;exitDy=0;entryX=0.5;entryY=0;entryDx=0;entryDy=0;" edge="1" parent="WIyWlLk6GJQsqaUBKTNV-1" source="vzBQqOmFEDf3CWvEY5FO-66" target="vzBQqOmFEDf3CWvEY5FO-66">
          <mxGeometry relative="1" as="geometry">
            <Array as="points">
              <mxPoint x="920" y="140" />
              <mxPoint x="920" y="80" />
              <mxPoint x="537" y="80" />
            </Array>
          </mxGeometry>
        </mxCell>
        <mxCell id="eQsu32Dl5af4qTcnEUIw-15" style="edgeStyle=orthogonalEdgeStyle;rounded=0;orthogonalLoop=1;jettySize=auto;html=1;exitX=1;exitY=0.5;exitDx=0;exitDy=0;entryX=0.5;entryY=0;entryDx=0;entryDy=0;" edge="1" parent="WIyWlLk6GJQsqaUBKTNV-1" source="vzBQqOmFEDf3CWvEY5FO-1" target="vzBQqOmFEDf3CWvEY5FO-1">
          <mxGeometry relative="1" as="geometry">
            <Array as="points">
              <mxPoint x="920" y="460" />
              <mxPoint x="920" y="400" />
              <mxPoint x="537" y="400" />
            </Array>
          </mxGeometry>
        </mxCell>
        <mxCell id="eQsu32Dl5af4qTcnEUIw-17" style="edgeStyle=orthogonalEdgeStyle;rounded=0;orthogonalLoop=1;jettySize=auto;html=1;exitX=1;exitY=0.5;exitDx=0;exitDy=0;entryX=0.5;entryY=0;entryDx=0;entryDy=0;" edge="1" parent="WIyWlLk6GJQsqaUBKTNV-1" source="vzBQqOmFEDf3CWvEY5FO-17" target="vzBQqOmFEDf3CWvEY5FO-17">
          <mxGeometry relative="1" as="geometry">
            <Array as="points">
              <mxPoint x="920" y="640" />
              <mxPoint x="920" y="580" />
              <mxPoint x="537" y="580" />
            </Array>
          </mxGeometry>
        </mxCell>
        <mxCell id="eQsu32Dl5af4qTcnEUIw-26" style="edgeStyle=orthogonalEdgeStyle;rounded=0;orthogonalLoop=1;jettySize=auto;html=1;exitX=0.5;exitY=1;exitDx=0;exitDy=0;entryX=0.5;entryY=0;entryDx=0;entryDy=0;" edge="1" parent="WIyWlLk6GJQsqaUBKTNV-1" source="eQsu32Dl5af4qTcnEUIw-20" target="vzBQqOmFEDf3CWvEY5FO-55">
          <mxGeometry relative="1" as="geometry" />
        </mxCell>
        <mxCell id="eQsu32Dl5af4qTcnEUIw-20" value="Are any buttons pressed?" style="rhombus;whiteSpace=wrap;html=1;" vertex="1" parent="WIyWlLk6GJQsqaUBKTNV-1">
          <mxGeometry x="478.8999999999999" y="780" width="116.5" height="100" as="geometry" />
        </mxCell>
        <mxCell id="eQsu32Dl5af4qTcnEUIw-21" value="Yes" style="text;html=1;strokeColor=none;fillColor=none;align=center;verticalAlign=middle;whiteSpace=wrap;rounded=0;" vertex="1" parent="WIyWlLk6GJQsqaUBKTNV-1">
          <mxGeometry x="492.1499999999999" y="870" width="39.25" height="20" as="geometry" />
        </mxCell>
        <mxCell id="eQsu32Dl5af4qTcnEUIw-22" value="No" style="text;html=1;strokeColor=none;fillColor=none;align=center;verticalAlign=middle;whiteSpace=wrap;rounded=0;" vertex="1" parent="WIyWlLk6GJQsqaUBKTNV-1">
          <mxGeometry x="595.4" y="800" width="39.25" height="20" as="geometry" />
        </mxCell>
        <mxCell id="eQsu32Dl5af4qTcnEUIw-24" style="edgeStyle=orthogonalEdgeStyle;rounded=0;orthogonalLoop=1;jettySize=auto;html=1;exitX=1;exitY=0.5;exitDx=0;exitDy=0;entryX=0.5;entryY=0;entryDx=0;entryDy=0;" edge="1" parent="WIyWlLk6GJQsqaUBKTNV-1" source="eQsu32Dl5af4qTcnEUIw-20" target="eQsu32Dl5af4qTcnEUIw-20">
          <mxGeometry relative="1" as="geometry">
            <Array as="points">
              <mxPoint x="920" y="830" />
              <mxPoint x="920" y="770" />
              <mxPoint x="537" y="770" />
            </Array>
          </mxGeometry>
        </mxCell>
        <mxCell id="eQsu32Dl5af4qTcnEUIw-29" style="edgeStyle=orthogonalEdgeStyle;rounded=0;orthogonalLoop=1;jettySize=auto;html=1;exitX=1;exitY=0.5;exitDx=0;exitDy=0;entryX=0.5;entryY=0;entryDx=0;entryDy=0;" edge="1" parent="WIyWlLk6GJQsqaUBKTNV-1" source="vzBQqOmFEDf3CWvEY5FO-61" target="vzBQqOmFEDf3CWvEY5FO-61">
          <mxGeometry relative="1" as="geometry">
            <Array as="points">
              <mxPoint x="920" y="1090" />
              <mxPoint x="920" y="1030" />
              <mxPoint x="537" y="1030" />
            </Array>
          </mxGeometry>
        </mxCell>
      </root>
    </mxGraphModel>
  </diagram>
</mxfile>
